<svg xmlns="http://www.w3.org/2000/svg" style="display:none">
<symbol id="radios" viewBox="0 0 32 32">
  <path fill="#101828" d="M8.75 3.125a.625.625 0 0 1 .625-.625h8.75a.625.625 0 0 1 .625.625v1.25a.625.625 0 0 1-.625.625h-8.75a.625.625 0 0 1-.625-.625zM0 15a3.75 3.75 0 1 1 7.5 0A3.75 3.75 0 0 1 0 15m8.75-1.875a.625.625 0 0 1 .625-.625h8.75a.624.624 0 0 1 .625.625v1.25a.624.624 0 0 1-.625.625h-8.75a.625.625 0 0 1-.625-.625zm0-6.25a.625.625 0 0 1 .625-.625h6.25a.625.625 0 1 1 0 1.25h-6.25a.625.625 0 0 1-.625-.625m0 10a.625.625 0 0 1 .625-.625h6.25a.624.624 0 1 1 0 1.25h-6.25a.625.625 0 0 1-.625-.625m-5-15.625a3.75 3.75 0 1 0 0 7.5 3.75 3.75 0 0 0 0-7.5m0 5.625a1.875 1.875 0 1 1 0-3.75 1.875 1.875 0 0 1 0 3.75"/>
</symbol>

<symbol id="petrol" viewBox="0 0 32 32">
  <g fill="#101828" clip-path="url(#a)">
    <path d="M3.75 3.125a.625.625 0 0 1 .625-.625h6.25a.625.625 0 0 1 .625.625v6.25a.625.625 0 0 1-.625.625h-6.25a.625.625 0 0 1-.625-.625z"/>
    <path d="M1.25 2.5A2.5 2.5 0 0 1 3.75 0h7.5a2.5 2.5 0 0 1 2.5 2.5v10a2.5 2.5 0 0 1 2.5 2.5v.625a.624.624 0 1 0 1.25 0V10h-.625a.625.625 0 0 1-.625-.625V5.469a.625.625 0 0 1 .625-.625h1.869c-.014-.595-.067-1.118-.252-1.528A1.2 1.2 0 0 0 18 2.744c-.23-.138-.58-.244-1.125-.244a.625.625 0 1 1 0-1.25q1.057-.003 1.765.42c.479.285.793.689.992 1.134.37.819.368 1.831.368 2.601v3.969a.625.625 0 0 1-.625.626h-.625v5.625a1.875 1.875 0 1 1-3.75 0V15a1.25 1.25 0 0 0-1.25-1.25v5h.625a.624.624 0 1 1 0 1.25H.625a.625.625 0 1 1 0-1.25h.625zm11.25 0a1.25 1.25 0 0 0-1.25-1.25h-7.5A1.25 1.25 0 0 0 2.5 2.5v16.25h10z"/>
  </g>
  <defs>
    <clipPath id="a">
      <path fill="#fff" d="M0 0h20v20H0z"/>
    </clipPath>
  </defs>
</symbol>

<symbol id="3x3_gap" viewBox="0 0 32 32">
  <path fill="#101828" d="M8 4v4H4V4zm2 24v-4a2 2 0 0 0-2-2H4a2 2 0 0 0-2 2v4a2 2 0 0 0 2 2h4a2 2 0 0 0 2-2m0-10v-4a2 2 0 0 0-2-2H4a2 2 0 0 0-2 2v4a2 2 0 0 0 2 2h4a2 2 0 0 0 2-2m0-10V4a2 2 0 0 0-2-2H4a2 2 0 0 0-2 2v4a2 2 0 0 0 2 2h4a2 2 0 0 0 2-2m10 20v-4a2 2 0 0 0-2-2h-4a2 2 0 0 0-2 2v4a2 2 0 0 0 2 2h4a2 2 0 0 0 2-2m0-10v-4a2 2 0 0 0-2-2h-4a2 2 0 0 0-2 2v4a2 2 0 0 0 2 2h4a2 2 0 0 0 2-2m0-10V4a2 2 0 0 0-2-2h-4a2 2 0 0 0-2 2v4a2 2 0 0 0 2 2h4a2 2 0 0 0 2-2m-2-4v4h-4V4zm10 0v4h-4V4zM8 14v4H4v-4zm10 0v4h-4v-4zm10 0h-4v4h4zM8 24v4H4v-4zm10 0v4h-4v-4zm10 0v4h-4v-4zM24 2a2 2 0 0 0-2 2v4a2 2 0 0 0 2 2h4a2 2 0 0 0 2-2V4a2 2 0 0 0-2-2zm-2 12a2 2 0 0 1 2-2h4a2 2 0 0 1 2 2v4a2 2 0 0 1-2 2h-4a2 2 0 0 1-2-2zm2 8a2 2 0 0 0-2 2v4a2 2 0 0 0 2 2h4a2 2 0 0 0 2-2v-4a2 2 0 0 0-2-2z"/>
</symbol>

<symbol id="2x2_gap" viewBox="0 0 32 32">
  <path fill="#101828" d="M2 5a3 3 0 0 1 3-3h6a3 3 0 0 1 3 3v6a3 3 0 0 1-3 3H5a3 3 0 0 1-3-3zm3-1a1 1 0 0 0-1 1v6a1 1 0 0 0 1 1h6a1 1 0 0 0 1-1V5a1 1 0 0 0-1-1zm13 1a3 3 0 0 1 3-3h6a3 3 0 0 1 3 3v6a3 3 0 0 1-3 3h-6a3 3 0 0 1-3-3zm3-1a1 1 0 0 0-1 1v6a1 1 0 0 0 1 1h6a1 1 0 0 0 1-1V5a1 1 0 0 0-1-1zM2 21a3 3 0 0 1 3-3h6a3 3 0 0 1 3 3v6a3 3 0 0 1-3 3H5a3 3 0 0 1-3-3zm3-1a1 1 0 0 0-1 1v6a1 1 0 0 0 1 1h6a1 1 0 0 0 1-1v-6a1 1 0 0 0-1-1zm13 1a3 3 0 0 1 3-3h6a3 3 0 0 1 3 3v6a3 3 0 0 1-3 3h-6a3 3 0 0 1-3-3zm3-1a1 1 0 0 0-1 1v6a1 1 0 0 0 1 1h6a1 1 0 0 0 1-1v-6a1 1 0 0 0-1-1z"/>
</symbol>
<symbol id="bi_grid-1x2" viewBox="0 0 32 32">
  <g clip-path="url(#a)">
    <path fill="#101828" d="M12 2H2v28h10zm18 0H20v10h10zm0 18v10H20V20zM0 2a2 2 0 0 1 2-2h10a2 2 0 0 1 2 2v28a2 2 0 0 1-2 2H2a2 2 0 0 1-2-2zm18 0a2 2 0 0 1 2-2h10a2 2 0 0 1 2 2v10a2 2 0 0 1-2 2H20a2 2 0 0 1-2-2zm2 16a2 2 0 0 0-2 2v10a2 2 0 0 0 2 2h10a2 2 0 0 0 2-2V20a2 2 0 0 0-2-2z"/>
  </g>
  <defs>
    <clipPath id="a">
      <path fill="#fff" d="M0 0h32v32H0z"/>
    </clipPath>
  </defs>

</symbol>
<symbol id="diagram" viewBox="0 0 32 32">
  <path fill="#101828" fill-rule="evenodd" d="M12 7a3 3 0 0 1 3-3h2a3 3 0 0 1 3 3v2a3 3 0 0 1-3 3v2h11a1 1 0 0 1 1 1v2a1 1 0 0 1-2 0v-1H17v1a1 1 0 0 1-2 0v-1H5v1a1 1 0 1 1-2 0v-2a1 1 0 0 1 1-1h11v-2a3 3 0 0 1-3-3zm5 3a1 1 0 0 0 1-1V7a1 1 0 0 0-1-1h-2a1 1 0 0 0-1 1v2a1 1 0 0 0 1 1zM0 23a3 3 0 0 1 3-3h2a3 3 0 0 1 3 3v2a3 3 0 0 1-3 3H3a3 3 0 0 1-3-3zm3-1a1 1 0 0 0-1 1v2a1 1 0 0 0 1 1h2a1 1 0 0 0 1-1v-2a1 1 0 0 0-1-1zm9 1a3 3 0 0 1 3-3h2a3 3 0 0 1 3 3v2a3 3 0 0 1-3 3h-2a3 3 0 0 1-3-3zm3-1a1 1 0 0 0-1 1v2a1 1 0 0 0 1 1h2a1 1 0 0 0 1-1v-2a1 1 0 0 0-1-1zm9 1a3 3 0 0 1 3-3h2a3 3 0 0 1 3 3v2a3 3 0 0 1-3 3h-2a3 3 0 0 1-3-3zm3-1a1 1 0 0 0-1 1v2a1 1 0 0 0 1 1h2a1 1 0 0 0 1-1v-2a1 1 0 0 0-1-1z" clip-rule="evenodd"/>
</symbol>

<symbol id="wind" viewBox="0 0 32 32">
  <g clip-path="url(#a)">
    <path fill="#101828" d="M25 4a5 5 0 0 0-5 5 1 1 0 0 1-2 0 7 7 0 1 1 7 7H1a1 1 0 0 1 0-2h24a5 5 0 1 0 0-10M11 6a2 2 0 0 0-2 2 1 1 0 0 1-2 0 4 4 0 1 1 4 4H1a1 1 0 0 1 0-2h10a2 2 0 0 0 0-4M0 19a1 1 0 0 1 1-1h20.084a6 6 0 1 1-6 6 1 1 0 0 1 2 0 4 4 0 1 0 4-4H1a1 1 0 0 1-1-1"/>
  </g>
  <defs>
    <clipPath id="a">
      <path fill="#fff" d="M0 0h32v32H0z"/>
    </clipPath>
  </defs>
</symbol>

<symbol id="tv" viewBox="0 0 32 32">
  <path fill="#101828" d="M0 8s0-4 4-4h24s4 0 4 4v12s0 4-4 4h-8q0 2 .5 3H22a1 1 0 0 1 0 2H10a1 1 0 0 1 0-2h1.5q.5-1 .5-3H4s-4 0-4-4zm2.796-1.71a1.5 1.5 0 0 0-.508.604A3 3 0 0 0 2 8.02V20c0 .65.156 1.004.29 1.204q.21.312.604.508c.338.162.703.259 1.076.286l.05.002H28c.65 0 1.004-.156 1.204-.29a1.5 1.5 0 0 0 .508-.604c.162-.338.259-.703.286-1.076l.002-.05V8c0-.65-.156-1.004-.29-1.204a1.5 1.5 0 0 0-.604-.508A3 3 0 0 0 27.98 6H4c-.65 0-1.004.156-1.204.29"/>
</symbol>

<symbol id="map" viewBox="0 0 32 32">
  <g clip-path="url(#a)">
    <path fill="#101828" fill-rule="evenodd" d="M19.771.141A.62.62 0 0 1 20 .625v17.5a.625.625 0 0 1-.503.612l-6.25 1.25a.6.6 0 0 1-.245 0l-6.127-1.225-6.127 1.225A.625.625 0 0 1 0 19.375v-17.5a.625.625 0 0 1 .502-.613l6.25-1.25a.6.6 0 0 1 .245 0l6.128 1.225L19.253.012a.63.63 0 0 1 .518.129M12.5 2.387l-5-1v16.225l5 1zm1.25 16.225 5-1V1.387l-5 1zm-7.5-1V1.387l-5 1v16.225z" clip-rule="evenodd"/>
  </g>
  <defs>
    <clipPath id="a">
      <path fill="#fff" d="M0 0h20v20H0z"/>
    </clipPath>
  </defs>
</symbol>

<symbol id="logo" viewBox="0 0 136 16">
  <path fill="#475467" d="M135.393 7.187h-3.608a1 1 0 0 0-.235-.575 1.3 1.3 0 0 0-.532-.37 1.8 1.8 0 0 0-.711-.134q-.504 0-.866.185-.363.184-.355.525-.007.241.206.448.22.205.845.32l2.216.397q1.675.306 2.493 1.03.823.717.831 1.924-.008 1.165-.696 2.025-.683.852-1.868 1.32-1.18.462-2.692.462-2.5 0-3.913-1.022-1.407-1.023-1.57-2.7h3.892q.079.52.511.803.44.277 1.108.277.54 0 .888-.184.356-.185.362-.526-.007-.312-.312-.497-.299-.185-.938-.298l-1.931-.341q-1.67-.292-2.5-1.108-.831-.818-.824-2.103-.007-1.136.596-1.924.61-.795 1.74-1.208 1.137-.42 2.692-.419 2.365 0 3.729.98 1.37.98 1.442 2.713M116.415 11.96l.028-4.659h.512l2.642-3.665H124l-4.432 5.71h-1.108zm-3.523 2.585V0h3.921v14.546zm6.733 0-2.5-4.318 2.557-2.784 4.432 7.103zM105.619 14.744q-1.776 0-3.04-.703a4.84 4.84 0 0 1-1.939-1.974q-.675-1.271-.675-2.948 0-1.676.675-2.94a4.8 4.8 0 0 1 1.939-1.975q1.264-.71 3.04-.71 1.605 0 2.777.583 1.179.575 1.825 1.633.647 1.05.654 2.472h-3.637q-.078-.86-.497-1.307-.412-.455-1.065-.455-.512 0-.895.299-.384.291-.597.887-.213.59-.213 1.485t.213 1.491q.213.59.597.888.383.291.895.291.432 0 .767-.199.333-.206.539-.596.214-.397.256-.966h3.637q-.022 1.442-.661 2.514-.64 1.066-1.811 1.648-1.165.582-2.784.582M94.049 9.773V3.636h3.92v10.91h-3.721v-2.074h-.114a3.1 3.1 0 0 1-1.243 1.633q-.888.582-2.11.582-1.144 0-2.002-.525a3.6 3.6 0 0 1-1.328-1.449q-.469-.923-.476-2.116v-6.96h3.92v6.136q.007.81.412 1.271.412.462 1.15.462.492 0 .846-.206.363-.213.554-.597.2-.39.192-.93M77.903 14.545V3.636h3.807V5.71h.113q.3-1.15.945-1.683a2.34 2.34 0 0 1 1.527-.533q.256 0 .504.043.255.036.49.106V6.99a3.5 3.5 0 0 0-.717-.15 7 7 0 0 0-.731-.05q-.576 0-1.037.264-.455.255-.718.724-.263.462-.263 1.087v5.681zM64.45 3.182V0h12.643v3.182h-4.375v11.364h-3.892V3.182z"/>
  <path fill="#101828" d="M62.508 0v14.546h-3.92V0zM51.247 14.744q-1.748 0-3.012-.667a4.68 4.68 0 0 1-1.939-1.932q-.675-1.264-.674-3.026 0-1.69.681-2.954a4.87 4.87 0 0 1 1.925-1.968q1.244-.703 2.933-.703 1.236 0 2.238.384a4.7 4.7 0 0 1 1.711 1.115q.71.724 1.094 1.761t.384 2.337V10h-9.745V7.84h6.137a1.5 1.5 0 0 0-.242-.823 1.54 1.54 0 0 0-.618-.561 1.8 1.8 0 0 0-.873-.206 1.9 1.9 0 0 0-.874.206 1.65 1.65 0 0 0-.64.554q-.233.356-.248.83v2.33q0 .525.22.938t.633.646q.411.235.994.235.405 0 .739-.114a1.7 1.7 0 0 0 .582-.327q.241-.22.355-.525h3.58a4.1 4.1 0 0 1-.874 1.974q-.69.831-1.825 1.293-1.13.454-2.642.454M44.836 3.636l-3.664 10.91h-4.546l-3.665-10.91h4.12l1.761 7.216h.114l1.761-7.216zM25.056 14.716q-1.044 0-1.847-.341a2.78 2.78 0 0 1-1.25-1.051q-.454-.703-.454-1.79 0-.895.305-1.527a2.75 2.75 0 0 1 .853-1.044q.546-.405 1.27-.618a7.7 7.7 0 0 1 1.578-.277q.915-.07 1.47-.17.561-.106.81-.292a.6.6 0 0 0 .248-.504v-.028q0-.426-.327-.654-.327-.227-.838-.227-.561 0-.916.249-.348.241-.419.745h-3.608a3.7 3.7 0 0 1 .632-1.832q.568-.844 1.655-1.35 1.086-.51 2.713-.51 1.172 0 2.102.276.93.27 1.584.76.654.483.994 1.137.348.646.348 1.406v7.471h-3.664v-1.534h-.086a3.15 3.15 0 0 1-.795.988q-.462.376-1.058.546a4.7 4.7 0 0 1-1.3.17m1.278-2.472q.448 0 .838-.184.398-.185.647-.533.248-.348.248-.845v-.91a5 5 0 0 1-.333.121 6.764 6.764 0 0 1-.781.199 10 10 0 0 1-.448.078 2.2 2.2 0 0 0-.746.235q-.284.156-.426.39a1 1 0 0 0-.135.512q0 .455.32.696t.816.241M13.452 14.545V3.636h3.807V5.71h.114q.297-1.15.944-1.683a2.34 2.34 0 0 1 1.527-.533q.255 0 .505.043.255.036.49.106V6.99a3.5 3.5 0 0 0-.718-.15 7 7 0 0 0-.731-.05q-.576 0-1.037.264-.454.255-.718.724-.262.462-.262 1.087v5.681zM0 3.182V0h12.642v3.182H8.267v11.364H4.375V3.182z"/>
</symbol>

<symbol id="water" viewBox="0 0 32 32">
<path fill="#101828" d="M25 20C25 25.5231 21.5231 29 16 29C10.4769 29 7 25.5231 7 20C7 14.0731 13.4519 6.07187 15.4306 3.75749C15.501 3.67526 15.5884 3.60925 15.6867 3.56399C15.7851 3.51874 15.8921 3.4953 16.0003 3.4953C16.1086 3.4953 16.2155 3.51874 16.3139 3.56399C16.4122 3.60925 16.4996 3.67526 16.57 3.75749C18.5481 6.07187 25 14.0731 25 20Z" />
<path fill="#101828" d="M21.5 20.5C21.5 21.6935 21.0259 22.8381 20.182 23.682C19.3381 24.5259 18.1935 25 17 25" />
</symbol>

</svg>

